<?xml version="1.0" encoding="UTF-8" standalone="no"?>
<!DOCTYPE svg PUBLIC "-//W3C//DTD SVG 1.1//EN"
 "http://www.w3.org/Graphics/SVG/1.1/DTD/svg11.dtd">
<!-- Generated by graphviz version 2.48.0 (0)
 -->
<!-- Pages: 1 -->
<svg width="600pt" height="332pt"
 viewBox="0.00 0.00 600.46 332.00" xmlns="http://www.w3.org/2000/svg" xmlns:xlink="http://www.w3.org/1999/xlink">
<g id="graph0" class="graph" transform="scale(1 1) rotate(0) translate(4 328)">
<polygon fill="white" stroke="transparent" points="-4,4 -4,-328 596.46,-328 596.46,4 -4,4"/>
<!-- [root] docker_container.nginx (expand) -->
<g id="node1" class="node">
<title>[root] docker_container.nginx (expand)</title>
<polygon fill="none" stroke="black" points="416.18,-180 272.18,-180 272.18,-144 416.18,-144 416.18,-180"/>
<text text-anchor="middle" x="344.18" y="-158.3" font-family="Times,serif" font-size="14.00">docker_container.nginx</text>
</g>
<!-- [root] docker_image.nginx (expand) -->
<g id="node2" class="node">
<title>[root] docker_image.nginx (expand)</title>
<polygon fill="none" stroke="black" points="346.18,-108 218.18,-108 218.18,-72 346.18,-72 346.18,-108"/>
<text text-anchor="middle" x="282.18" y="-86.3" font-family="Times,serif" font-size="14.00">docker_image.nginx</text>
</g>
<!-- [root] docker_container.nginx (expand)&#45;&gt;[root] docker_image.nginx (expand) -->
<g id="edge1" class="edge">
<title>[root] docker_container.nginx (expand)&#45;&gt;[root] docker_image.nginx (expand)</title>
<path fill="none" stroke="black" d="M328.86,-143.7C321.42,-135.3 312.36,-125.07 304.2,-115.86"/>
<polygon fill="black" stroke="black" points="306.58,-113.27 297.33,-108.1 301.34,-117.91 306.58,-113.27"/>
</g>
<!-- [root] var.ext_port -->
<g id="node4" class="node">
<title>[root] var.ext_port</title>
<polygon fill="none" stroke="black" points="441.68,-108 364.68,-108 364.68,-72 447.68,-72 447.68,-102 441.68,-108"/>
<polyline fill="none" stroke="black" points="441.68,-108 441.68,-102 "/>
<polyline fill="none" stroke="black" points="447.68,-102 441.68,-102 "/>
<text text-anchor="middle" x="406.18" y="-86.3" font-family="Times,serif" font-size="14.00">var.ext_port</text>
</g>
<!-- [root] docker_container.nginx (expand)&#45;&gt;[root] var.ext_port -->
<g id="edge2" class="edge">
<title>[root] docker_container.nginx (expand)&#45;&gt;[root] var.ext_port</title>
<path fill="none" stroke="black" d="M359.51,-143.7C366.94,-135.3 376,-125.07 384.16,-115.86"/>
<polygon fill="black" stroke="black" points="387.02,-117.91 391.03,-108.1 381.78,-113.27 387.02,-117.91"/>
</g>
<!-- [root] provider[&quot;registry.terraform.io/kreuzwerker/docker&quot;] -->
<g id="node3" class="node">
<title>[root] provider[&quot;registry.terraform.io/kreuzwerker/docker&quot;]</title>
<polygon fill="none" stroke="black" points="282.18,-36 -0.18,-18 282.18,0 564.54,-18 282.18,-36"/>
<text text-anchor="middle" x="282.18" y="-14.3" font-family="Times,serif" font-size="14.00">provider[&quot;registry.terraform.io/kreuzwerker/docker&quot;]</text>
</g>
<!-- [root] docker_image.nginx (expand)&#45;&gt;[root] provider[&quot;registry.terraform.io/kreuzwerker/docker&quot;] -->
<g id="edge3" class="edge">
<title>[root] docker_image.nginx (expand)&#45;&gt;[root] provider[&quot;registry.terraform.io/kreuzwerker/docker&quot;]</title>
<path fill="none" stroke="black" d="M282.18,-71.7C282.18,-63.98 282.18,-54.71 282.18,-46.11"/>
<polygon fill="black" stroke="black" points="285.68,-46.1 282.18,-36.1 278.68,-46.1 285.68,-46.1"/>
</g>
<!-- [root] provider[&quot;registry.terraform.io/kreuzwerker/docker&quot;] (close) -->
<g id="node5" class="node">
<title>[root] provider[&quot;registry.terraform.io/kreuzwerker/docker&quot;] (close)</title>
<ellipse fill="none" stroke="black" cx="344.18" cy="-234" rx="248.06" ry="18"/>
<text text-anchor="middle" x="344.18" y="-230.3" font-family="Times,serif" font-size="14.00">[root] provider[&quot;registry.terraform.io/kreuzwerker/docker&quot;] (close)</text>
</g>
<!-- [root] provider[&quot;registry.terraform.io/kreuzwerker/docker&quot;] (close)&#45;&gt;[root] docker_container.nginx (expand) -->
<g id="edge4" class="edge">
<title>[root] provider[&quot;registry.terraform.io/kreuzwerker/docker&quot;] (close)&#45;&gt;[root] docker_container.nginx (expand)</title>
<path fill="none" stroke="black" d="M344.18,-215.7C344.18,-207.98 344.18,-198.71 344.18,-190.11"/>
<polygon fill="black" stroke="black" points="347.68,-190.1 344.18,-180.1 340.68,-190.1 347.68,-190.1"/>
</g>
<!-- [root] root -->
<g id="node6" class="node">
<title>[root] root</title>
<ellipse fill="none" stroke="black" cx="344.18" cy="-306" rx="47.39" ry="18"/>
<text text-anchor="middle" x="344.18" y="-302.3" font-family="Times,serif" font-size="14.00">[root] root</text>
</g>
<!-- [root] root&#45;&gt;[root] provider[&quot;registry.terraform.io/kreuzwerker/docker&quot;] (close) -->
<g id="edge5" class="edge">
<title>[root] root&#45;&gt;[root] provider[&quot;registry.terraform.io/kreuzwerker/docker&quot;] (close)</title>
<path fill="none" stroke="black" d="M344.18,-287.7C344.18,-279.98 344.18,-270.71 344.18,-262.11"/>
<polygon fill="black" stroke="black" points="347.68,-262.1 344.18,-252.1 340.68,-262.1 347.68,-262.1"/>
</g>
</g>
</svg>
