<?xml version="1.0" encoding="UTF-8" standalone="no"?>
<!DOCTYPE svg PUBLIC "-//W3C//DTD SVG 1.1//EN"
 "http://www.w3.org/Graphics/SVG/1.1/DTD/svg11.dtd">
<!-- Generated by graphviz version 2.43.0 (0)
 -->
<!-- Title: %3 Pages: 1 -->
<svg width="1108pt" height="332pt"
 viewBox="0.00 0.00 1108.40 332.00" xmlns="http://www.w3.org/2000/svg" xmlns:xlink="http://www.w3.org/1999/xlink">
<g id="graph0" class="graph" transform="scale(1 1) rotate(0) translate(4 328)">
<title>%3</title>
<polygon fill="white" stroke="transparent" points="-4,4 -4,-328 1104.4,-328 1104.4,4 -4,4"/>
<!-- [root] docker_container.nginx (expand) -->
<g id="node1" class="node">
<title>[root] docker_container.nginx (expand)</title>
<polygon fill="none" stroke="black" points="592.93,-180 410.93,-180 410.93,-144 592.93,-144 592.93,-180"/>
<text text-anchor="middle" x="501.93" y="-158.3" font-family="Times,serif" font-size="14.00">docker_container.nginx</text>
</g>
<!-- [root] docker_image.nginx (expand) -->
<g id="node2" class="node">
<title>[root] docker_image.nginx (expand)</title>
<polygon fill="none" stroke="black" points="507.43,-108 348.43,-108 348.43,-72 507.43,-72 507.43,-108"/>
<text text-anchor="middle" x="427.93" y="-86.3" font-family="Times,serif" font-size="14.00">docker_image.nginx</text>
</g>
<!-- [root] docker_container.nginx (expand)&#45;&gt;[root] docker_image.nginx (expand) -->
<g id="edge1" class="edge">
<title>[root] docker_container.nginx (expand)&#45;&gt;[root] docker_image.nginx (expand)</title>
<path fill="none" stroke="black" d="M483.64,-143.7C474.5,-135.05 463.29,-124.45 453.33,-115.03"/>
<polygon fill="black" stroke="black" points="455.68,-112.43 446.01,-108.1 450.87,-117.52 455.68,-112.43"/>
</g>
<!-- [root] var.ext_port -->
<g id="node4" class="node">
<title>[root] var.ext_port</title>
<polygon fill="none" stroke="black" points="620.93,-108 524.93,-108 524.93,-72 626.93,-72 626.93,-102 620.93,-108"/>
<polyline fill="none" stroke="black" points="620.93,-108 620.93,-102 "/>
<polyline fill="none" stroke="black" points="626.93,-102 620.93,-102 "/>
<text text-anchor="middle" x="575.93" y="-86.3" font-family="Times,serif" font-size="14.00">var.ext_port</text>
</g>
<!-- [root] docker_container.nginx (expand)&#45;&gt;[root] var.ext_port -->
<g id="edge2" class="edge">
<title>[root] docker_container.nginx (expand)&#45;&gt;[root] var.ext_port</title>
<path fill="none" stroke="black" d="M520.22,-143.7C529.36,-135.05 540.57,-124.45 550.53,-115.03"/>
<polygon fill="black" stroke="black" points="552.99,-117.52 557.85,-108.1 548.18,-112.43 552.99,-117.52"/>
</g>
<!-- [root] provider[&quot;registry.terraform.io/kreuzwerker/docker&quot;] -->
<g id="node3" class="node">
<title>[root] provider[&quot;registry.terraform.io/kreuzwerker/docker&quot;]</title>
<polygon fill="none" stroke="black" points="427.93,-36 64.8,-18 427.93,0 791.06,-18 427.93,-36"/>
<text text-anchor="middle" x="427.93" y="-14.3" font-family="Times,serif" font-size="14.00">provider[&quot;registry.terraform.io/kreuzwerker/docker&quot;]</text>
</g>
<!-- [root] docker_image.nginx (expand)&#45;&gt;[root] provider[&quot;registry.terraform.io/kreuzwerker/docker&quot;] -->
<g id="edge3" class="edge">
<title>[root] docker_image.nginx (expand)&#45;&gt;[root] provider[&quot;registry.terraform.io/kreuzwerker/docker&quot;]</title>
<path fill="none" stroke="black" d="M427.93,-71.7C427.93,-63.98 427.93,-54.71 427.93,-46.11"/>
<polygon fill="black" stroke="black" points="431.43,-46.1 427.93,-36.1 424.43,-46.1 431.43,-46.1"/>
</g>
<!-- [root] meta.count&#45;boundary (EachMode fixup) -->
<g id="node5" class="node">
<title>[root] meta.count&#45;boundary (EachMode fixup)</title>
<ellipse fill="none" stroke="black" cx="222.93" cy="-234" rx="222.86" ry="18"/>
<text text-anchor="middle" x="222.93" y="-230.3" font-family="Times,serif" font-size="14.00">[root] meta.count&#45;boundary (EachMode fixup)</text>
</g>
<!-- [root] meta.count&#45;boundary (EachMode fixup)&#45;&gt;[root] docker_container.nginx (expand) -->
<g id="edge4" class="edge">
<title>[root] meta.count&#45;boundary (EachMode fixup)&#45;&gt;[root] docker_container.nginx (expand)</title>
<path fill="none" stroke="black" d="M287.64,-216.76C328.41,-206.54 381.28,-193.27 424.31,-182.48"/>
<polygon fill="black" stroke="black" points="425.32,-185.83 434.17,-180 423.62,-179.04 425.32,-185.83"/>
</g>
<!-- [root] provider[&quot;registry.terraform.io/kreuzwerker/docker&quot;] (close) -->
<g id="node6" class="node">
<title>[root] provider[&quot;registry.terraform.io/kreuzwerker/docker&quot;] (close)</title>
<ellipse fill="none" stroke="black" cx="781.93" cy="-234" rx="318.44" ry="18"/>
<text text-anchor="middle" x="781.93" y="-230.3" font-family="Times,serif" font-size="14.00">[root] provider[&quot;registry.terraform.io/kreuzwerker/docker&quot;] (close)</text>
</g>
<!-- [root] provider[&quot;registry.terraform.io/kreuzwerker/docker&quot;] (close)&#45;&gt;[root] docker_container.nginx (expand) -->
<g id="edge5" class="edge">
<title>[root] provider[&quot;registry.terraform.io/kreuzwerker/docker&quot;] (close)&#45;&gt;[root] docker_container.nginx (expand)</title>
<path fill="none" stroke="black" d="M715.22,-216.32C674.55,-206.16 622.39,-193.12 579.84,-182.48"/>
<polygon fill="black" stroke="black" points="580.63,-179.07 570.08,-180.04 578.93,-185.86 580.63,-179.07"/>
</g>
<!-- [root] root -->
<g id="node7" class="node">
<title>[root] root</title>
<ellipse fill="none" stroke="black" cx="501.93" cy="-306" rx="58.49" ry="18"/>
<text text-anchor="middle" x="501.93" y="-302.3" font-family="Times,serif" font-size="14.00">[root] root</text>
</g>
<!-- [root] root&#45;&gt;[root] meta.count&#45;boundary (EachMode fixup) -->
<g id="edge6" class="edge">
<title>[root] root&#45;&gt;[root] meta.count&#45;boundary (EachMode fixup)</title>
<path fill="none" stroke="black" d="M458.03,-293.99C415.07,-283.21 348.8,-266.58 297.55,-253.72"/>
<polygon fill="black" stroke="black" points="298.4,-250.33 287.84,-251.29 296.69,-257.12 298.4,-250.33"/>
</g>
<!-- [root] root&#45;&gt;[root] provider[&quot;registry.terraform.io/kreuzwerker/docker&quot;] (close) -->
<g id="edge7" class="edge">
<title>[root] root&#45;&gt;[root] provider[&quot;registry.terraform.io/kreuzwerker/docker&quot;] (close)</title>
<path fill="none" stroke="black" d="M545.99,-293.99C588.74,-283.3 654.5,-266.86 705.74,-254.05"/>
<polygon fill="black" stroke="black" points="706.61,-257.44 715.46,-251.62 704.91,-250.65 706.61,-257.44"/>
</g>
</g>
</svg>
